<?xml version="1.0" encoding="UTF-8"?>
<svg xmlns="http://www.w3.org/2000/svg" viewBox="440 900 1120 200">
  <defs>
    <style>
      .st0 {
        fill: #09282a;
      }

      .st1 {
        fill: #0a645a;
      }
    </style>
  </defs>
  <g>
    <path class="st0" d="M740.08,1063.42l-33.92-128.09h20.75l24.9,101.21,24.9-101.21h19.85l24.9,101.21,24.72-101.21h21.11l-34.1,128.09h-22.73l-23.81-93.45-23.81,93.45h-22.73Z"/>
    <path class="st0" d="M905.34,1065.58c-9.99,0-17.95-2.28-23.91-6.86-5.95-4.57-8.93-11.01-8.93-19.3s2.5-14.61,7.49-19.3c4.99-4.69,12.72-8.06,23.18-10.1l33.02-6.31c0-14.79-6.92-22.19-20.75-22.19-6.13,0-10.95,1.38-14.43,4.15-3.49,2.77-5.89,6.74-7.22,11.91l-19.67-1.26c1.8-9.62,6.28-17.2,13.44-22.73,7.16-5.53,16.45-8.3,27.87-8.3,12.99,0,22.88,3.46,29.68,10.37,6.79,6.92,10.19,16.63,10.19,29.14v37.35c0,2.29.39,3.88,1.17,4.78.78.9,2.07,1.35,3.88,1.35h3.43v15.15c-1.69.36-4.03.54-7.04.54-5.41,0-9.71-1.11-12.9-3.34-3.19-2.22-5.2-6.04-6.04-11.46v-.54c-2.41,5.05-6.56,9.14-12.45,12.27-5.89,3.13-12.57,4.69-20.03,4.69ZM908.41,1050.43c8.66,0,15.45-2.46,20.39-7.4,4.93-4.93,7.4-11.19,7.4-18.76v-6.13l-28.14,5.41c-5.77,1.08-9.83,2.8-12.18,5.14-2.35,2.35-3.52,5.32-3.52,8.93,0,4.09,1.41,7.25,4.24,9.47,2.82,2.23,6.77,3.34,11.82,3.34Z"/>
    <path class="st0" d="M979.85,1063.42v-95.98h17.5l.54,18.22c1.8-6.25,4.6-10.85,8.39-13.8,3.79-2.95,8.63-4.42,14.52-4.42h9.2v17.14h-9.2c-7.34,0-12.81,1.8-16.42,5.41s-5.41,9.2-5.41,16.78v56.65h-19.12Z"/>
    <path class="st0" d="M1077.82,1065.58c-8.18,0-15.28-2.05-21.29-6.13-6.02-4.09-10.64-9.89-13.89-17.41-3.25-7.52-4.87-16.39-4.87-26.61s1.62-19.09,4.87-26.61c3.25-7.52,7.88-13.32,13.89-17.41,6.01-4.09,13.11-6.13,21.29-6.13,6.61,0,12.51,1.38,17.68,4.15,5.17,2.77,9.08,6.62,11.73,11.55v-45.65h19.12v128.09h-17.86l-.54-14.43c-2.65,5.29-6.65,9.38-12,12.27-5.35,2.89-11.4,4.33-18.13,4.33ZM1082.87,1048.98c7.82,0,13.83-2.95,18.04-8.84,4.21-5.89,6.31-14.13,6.31-24.72s-2.11-18.97-6.31-24.81c-4.21-5.83-10.22-8.75-18.04-8.75s-13.83,2.98-18.4,8.93c-4.57,5.95-6.86,14.16-6.86,24.63s2.28,18.37,6.86,24.45c4.57,6.07,10.7,9.11,18.4,9.11Z"/>
    <path class="st0" d="M1176.68,1063.42l-33.92-128.09h20.75l24.9,101.21,24.9-101.21h19.85l24.9,101.21,24.72-101.21h21.11l-34.1,128.09h-22.73l-23.81-93.45-23.81,93.45h-22.73Z"/>
    <path class="st0" d="M1319.39,953.54v-19.12h19.85v19.12h-19.85ZM1319.75,1063.42v-95.98h19.12v95.98h-19.12Z"/>
    <path class="st0" d="M1401.12,1065.58c-13.95,0-24.42-3.04-31.39-9.11-6.98-6.07-10.83-13.86-11.55-23.36l19.67-.9c.84,5.29,3.01,9.5,6.5,12.63,3.49,3.13,9.08,4.69,16.78,4.69,6.01,0,10.61-.96,13.8-2.89,3.19-1.92,4.78-4.99,4.78-9.2,0-2.4-.54-4.39-1.62-5.95-1.08-1.56-3.19-2.92-6.31-4.06-3.13-1.14-7.76-2.26-13.89-3.34-9.38-1.8-16.69-3.94-21.92-6.4-5.23-2.46-8.93-5.53-11.1-9.2-2.17-3.67-3.25-8.15-3.25-13.44,0-8.66,3.31-15.79,9.92-21.38,6.61-5.59,16.18-8.39,28.69-8.39,8.78,0,15.99,1.47,21.65,4.42,5.65,2.95,9.92,6.83,12.81,11.64,2.89,4.81,4.63,9.98,5.23,15.52l-19.67,1.08c-.36-4.57-2.07-8.48-5.14-11.73s-8.15-4.87-15.25-4.87c-6.25,0-10.89,1.2-13.89,3.61-3.01,2.41-4.51,5.53-4.51,9.38,0,4.21,1.41,7.37,4.24,9.47,2.82,2.11,8.15,3.76,15.97,4.96,9.74,1.56,17.35,3.58,22.82,6.04,5.47,2.47,9.35,5.53,11.64,9.2,2.28,3.67,3.43,8.09,3.43,13.26,0,9.02-3.55,16-10.64,20.93-7.1,4.93-16.36,7.4-27.78,7.4Z"/>
    <path class="st0" d="M1498.72,1065.58c-9.38,0-17.47-2.07-24.27-6.22-6.8-4.15-12.03-9.98-15.7-17.5-3.67-7.52-5.5-16.33-5.5-26.43s1.83-18.91,5.5-26.43c3.67-7.52,8.87-13.35,15.61-17.5,6.73-4.15,14.67-6.22,23.82-6.22,8.66,0,16.3,2.02,22.91,6.04,6.61,4.03,11.75,9.83,15.43,17.41,3.67,7.58,5.5,16.72,5.5,27.42v4.87h-68.92c.48,9.38,2.98,16.42,7.49,21.11,4.51,4.69,10.61,7.04,18.31,7.04,5.65,0,10.31-1.29,13.98-3.88,3.67-2.58,6.28-6.16,7.85-10.73l19.85,1.26c-2.53,9.02-7.49,16.24-14.88,21.65-7.4,5.41-16.39,8.12-26.97,8.12ZM1473.1,1006.59h48.71c-.6-8.54-3.07-14.85-7.4-18.94-4.33-4.09-9.74-6.13-16.24-6.13-6.86,0-12.48,2.14-16.87,6.4-4.39,4.27-7.13,10.5-8.21,18.67Z"/>
  </g>
  <polygon class="st1" points="670.41 916.95 670.41 1015.71 634.72 1015.71 634.72 1083.05 579.18 1083.05 567.38 1041.79 561.01 1019.51 561.01 1083.05 505.49 1083.05 493.68 1041.76 457.98 916.95 503.12 916.95 531.37 1015.71 559.92 1015.71 531.68 916.95 576.82 916.95 605.07 1015.71 620.74 1015.71 620.74 916.95 670.41 916.95"/>
</svg>
